<svg width="48" height="48" viewBox="0 0 48 48" fill="none" xmlns="http://www.w3.org/2000/svg">
<rect width="48" height="48" fill="white"/>
<path d="M30.5 39.5C30.5 41.0205 29.3144 42.749 26.61 44.1857C23.9714 45.5875 20.2228 46.5 16 46.5C11.7772 46.5 8.02859 45.5875 5.39002 44.1857C2.6856 42.749 1.5 41.0205 1.5 39.5C1.5 37.9795 2.6856 36.251 5.39002 34.8143C8.02859 33.4125 11.7772 32.5 16 32.5C20.2228 32.5 23.9714 33.4125 26.61 34.8143C29.3144 36.251 30.5 37.9795 30.5 39.5Z" fill="white" stroke="#152C5B" stroke-width="3"/>
<path d="M28.5 13.5625C28.5 16.9927 27.008 21.8995 24.8668 26.7456C22.74 31.559 20.0841 36.0652 17.9578 38.6647C17.501 39.2231 16.9659 39.4341 16.5 39.4341C16.0341 39.4341 15.499 39.2231 15.0422 38.6647C12.9159 36.0652 10.26 31.559 8.13322 26.7456C5.992 21.8995 4.5 16.9927 4.5 13.5625C4.5 6.89403 9.87911 1.5 16.5 1.5C23.1209 1.5 28.5 6.89403 28.5 13.5625Z" fill="white" stroke="#152C5B" stroke-width="3"/>
<circle cx="16.5" cy="13.5" r="6.5" stroke="#FF498B" stroke-width="3" stroke-linecap="round" stroke-linejoin="round"/>
</svg>
