<svg width="48" height="48" viewBox="0 0 48 48" fill="none" xmlns="http://www.w3.org/2000/svg">
<rect width="48" height="48" fill="white"/>
<circle cx="23.5" cy="26.5" r="7.5" stroke="#FF498B" stroke-width="3" stroke-linecap="round" stroke-linejoin="round"/>
<path d="M40 19H35" stroke="#FF498B" stroke-width="3" stroke-linecap="round" stroke-linejoin="round"/>
<mask id="path-4-inside-1" fill="white">
<path fill-rule="evenodd" clip-rule="evenodd" d="M17.4934 7C16.6076 7 15.8274 7.58258 15.5758 8.43182L14.6296 11.625H8C3.58172 11.625 0 15.2067 0 19.625V34C0 38.4183 3.58172 42 8 42H40C44.4183 42 48 38.4183 48 34V19.625C48 15.2067 44.4183 11.625 40 11.625H33.3704L32.4242 8.43182C32.1726 7.58258 31.3924 7 30.5066 7H17.4934Z"/>
</mask>
<path d="M15.5758 8.43182L12.6994 7.57956V7.57956L15.5758 8.43182ZM14.6296 11.625V14.625H16.8697L17.506 12.4773L14.6296 11.625ZM33.3704 11.625L30.494 12.4773L31.1303 14.625H33.3704V11.625ZM32.4242 8.43182L29.5478 9.28408L29.5478 9.28409L32.4242 8.43182ZM18.4522 9.28409C18.3263 9.70871 17.9362 10 17.4934 10V4C15.279 4 13.3284 5.45645 12.6994 7.57956L18.4522 9.28409ZM17.506 12.4773L18.4522 9.28409L12.6994 7.57956L11.7532 10.7727L17.506 12.4773ZM8 14.625H14.6296V8.625H8V14.625ZM3 19.625C3 16.8636 5.23858 14.625 8 14.625V8.625C1.92487 8.625 -3 13.5499 -3 19.625H3ZM3 34V19.625H-3V34H3ZM8 39C5.23858 39 3 36.7614 3 34H-3C-3 40.0751 1.92487 45 8 45V39ZM40 39H8V45H40V39ZM45 34C45 36.7614 42.7614 39 40 39V45C46.0751 45 51 40.0751 51 34H45ZM45 19.625V34H51V19.625H45ZM40 14.625C42.7614 14.625 45 16.8636 45 19.625H51C51 13.5499 46.0751 8.625 40 8.625V14.625ZM33.3704 14.625H40V8.625H33.3704V14.625ZM29.5478 9.28409L30.494 12.4773L36.2468 10.7727L35.3006 7.57956L29.5478 9.28409ZM30.5066 10C30.0638 10 29.6737 9.70871 29.5478 9.28408L35.3006 7.57956C34.6716 5.45646 32.721 4 30.5066 4V10ZM17.4934 10H30.5066V4H17.4934V10Z" fill="#152C5B" mask="url(#path-4-inside-1)"/>
</svg>
